<?xml version="1.0" encoding="UTF-8" standalone="no"?>
<!DOCTYPE svg PUBLIC "-//W3C//DTD SVG 1.1//EN" "http://www.w3.org/Graphics/SVG/1.1/DTD/svg11.dtd">
<svg width="1000.00" height="1000.00" viewBox="0.00 0.00 1000.00 1000.00" xmlns="http://www.w3.org/2000/svg" xmlns:xlink="http://www.w3.org/1999/xlink">
<g stroke-linecap="round" id="object">
<path d="M39.19,872.41 C39.19,872.41 492.35,609.36 492.35,609.36" fill="none" stroke="rgb(7, 0, 0)" stroke-width="3.77" stroke-opacity="1.00" stroke-linejoin="round"/>
<path d="M494.81,611.34 C494.81,611.34 942.07,872.15 942.07,872.15" fill="none" stroke="rgb(7, 0, 0)" stroke-width="3.77" stroke-opacity="1.00" stroke-linejoin="round"/>
<path d="M492.33,611.88 C492.33,611.88 492.33,89.72 492.33,89.72" fill="none" stroke="rgb(7, 0, 0)" stroke-width="3.77" stroke-opacity="1.00" stroke-linejoin="round"/>
<path d="M86.02,732.54 C86.02,732.54 36.67,874.82 36.67,874.82 C36.67,874.82 180.74,894.17 180.74,894.17" fill="none" stroke="rgb(7, 0, 0)" stroke-width="3.77" stroke-opacity="1.00" stroke-linejoin="miter"/>
<path d="M795.21,892.78 C795.21,892.78 944.48,872.88 944.48,872.88 C944.48,872.88 896.97,735.50 896.97,735.50" fill="none" stroke="rgb(7, 0, 0)" stroke-width="3.77" stroke-opacity="1.00" stroke-linejoin="miter"/>
<path d="M590.14,203.74 C590.14,203.74 492.12,89.41 492.12,89.41 C492.12,89.41 402.80,204.09 402.80,204.09" fill="none" stroke="rgb(7, 0, 0)" stroke-width="3.77" stroke-opacity="1.00" stroke-linejoin="miter"/>
</g>
</svg>
