<?xml version="1.0" encoding="UTF-8" standalone="no"?>
<!DOCTYPE svg PUBLIC "-//W3C//DTD SVG 1.1//EN" "http://www.w3.org/Graphics/SVG/1.1/DTD/svg11.dtd">
<svg width="1000.00" height="1000.00" viewBox="0.00 0.00 1000.00 1000.00" xmlns="http://www.w3.org/2000/svg" xmlns:xlink="http://www.w3.org/1999/xlink">
<g stroke-linecap="round" id="up">
<path d="M438.45,44.26 C427.17,44.26 392.10,47.11 376.69,49.32 C369.05,50.55 350.75,54.04 346.46,55.11 C331.60,58.96 301.94,68.62 287.50,74.32 C280.37,77.28 266.33,83.51 259.51,87.00 C245.91,94.19 219.24,110.47 206.55,119.32 C200.30,123.84 190.65,131.14 182.31,138.19 C170.72,148.35 148.53,170.36 138.24,181.88 C130.64,190.71 126.02,196.50 119.10,205.88 C110.16,218.47 93.64,245.01 86.31,258.57 C81.29,268.27 76.33,279.30 73.31,286.39 C67.51,300.74 57.57,330.36 53.58,345.22 C51.70,352.65 48.75,367.72 47.45,375.33 C45.11,390.68 42.29,421.74 41.84,437.09 C41.75,441.51 42.43,460.13 42.92,467.85 C44.20,483.37 49.23,518.19 51.73,529.19 C54.25,540.18 64.82,573.74 70.41,588.28 C73.31,595.45 80.78,612.52 82.78,616.45 C89.84,630.09 105.86,656.86 114.63,669.67 C119.10,675.96 128.30,688.26 133.22,694.14 C143.26,705.79 165.06,728.17 176.52,738.57 C182.31,743.66 191.57,751.44 200.30,758.00 C212.79,767.04 239.18,783.78 252.71,791.25 C263.01,796.70 269.68,799.91 280.37,804.57 C294.63,810.49 324.18,820.68 339.03,824.81 C349.61,827.55 361.46,829.93 369.05,831.29 C384.33,833.76 415.41,836.85 430.79,837.44 C438.45,837.62 453.80,837.14 461.51,836.72 C476.99,835.58 507.91,831.42 522.97,828.44 C527.30,827.55 545.30,822.75 552.71,820.54 C567.56,815.85 600.39,803.19 610.56,798.31 C620.72,793.40 651.08,775.63 664.01,766.95 C670.36,762.52 685.33,751.44 688.72,748.61 C700.45,738.70 722.98,717.12 733.52,705.73 C738.66,699.97 748.60,688.26 753.24,682.15 C762.37,669.77 779.33,643.54 786.93,630.05 C790.59,623.27 796.12,612.52 800.57,602.54 C806.61,588.36 817.06,558.90 821.32,544.06 C824.34,532.80 825.99,525.58 828.16,514.12 C830.75,498.90 834.12,467.82 834.84,452.43 C835.15,441.51 834.84,429.42 834.48,421.72 C833.48,406.27 829.58,375.28 826.73,360.16 C825.20,352.65 821.32,337.79 819.19,330.37 C814.64,315.53 803.70,286.31 797.44,272.29 C795.61,268.27 786.93,251.79 783.13,245.05 C775.25,231.62 755.60,202.43 748.58,193.61 C741.54,184.79 717.45,159.14 706.11,148.47 C700.38,143.27 686.25,131.14 682.74,128.46 C670.46,119.23 644.41,102.07 630.96,94.33 C624.20,90.60 610.57,83.51 603.59,80.35 C589.48,74.20 560.13,63.51 545.30,59.10 C537.87,57.04 526.15,54.04 515.44,51.92 C500.27,49.19 469.22,45.56 453.80,44.70 C449.96,44.55 439.91,44.26 438.45,44.26 Z" fill="none" stroke="rgb(7, 0, 0)" stroke-width="3.47" stroke-opacity="1.00" stroke-linejoin="round"/>
<path d="M696.92,741.63 L924.42,969.13" fill="none" stroke="rgb(7, 0, 0)" stroke-width="3.19" stroke-opacity="1.00" stroke-linejoin="round"/>
<path d="M239.50,441.50 L622.50,441.50" fill="none" stroke="rgb(7, 0, 0)" stroke-width="3.00" stroke-opacity="1.00" stroke-linejoin="round"/>
</g>
</svg>
