<?xml version="1.0" encoding="UTF-8" standalone="no"?>
<!DOCTYPE svg PUBLIC "-//W3C//DTD SVG 1.1//EN" "http://www.w3.org/Graphics/SVG/1.1/DTD/svg11.dtd">
<svg width="1000.00" height="1000.00" viewBox="0.00 0.00 1000.00 1000.00" xmlns="http://www.w3.org/2000/svg" xmlns:xlink="http://www.w3.org/1999/xlink">
<g stroke-linecap="round" id="scale">
<path d="M504.82,645.45 C516.05,645.46 551.36,647.87 566.91,649.75 C586.46,652.40 608.50,656.78 627.58,661.82 C642.66,666.04 676.20,677.32 686.59,681.61 C696.96,685.92 728.66,701.66 742.31,709.34 C759.36,719.27 778.04,731.75 793.74,743.71 C806.06,753.37 832.73,776.64 840.68,784.57 C848.62,792.52 871.88,819.20 881.55,831.52 C893.51,847.22 905.99,865.90 915.92,882.95 C923.60,896.60 939.34,928.30 943.65,938.67 C947.94,949.05 959.22,982.60 963.44,997.68 C968.48,1016.76 972.86,1038.80 975.51,1058.35 C977.38,1073.90 979.80,1109.21 979.80,1120.44 C979.80,1131.67 977.38,1166.98 975.51,1182.53 C972.86,1202.09 968.48,1224.12 963.44,1243.20 C959.22,1258.28 947.94,1291.83 943.65,1302.21 C939.34,1312.59 923.60,1344.29 915.92,1357.93 C905.99,1374.99 893.51,1393.67 881.55,1409.37 C871.88,1421.68 848.62,1448.36 840.68,1456.31 C832.73,1464.25 806.06,1487.51 793.74,1497.18 C778.04,1509.13 759.36,1521.61 742.31,1531.54 C728.66,1539.22 696.96,1554.97 686.59,1559.27 C676.20,1563.56 642.66,1574.85 627.58,1579.07 C608.50,1584.10 586.46,1588.49 566.91,1591.13 C551.36,1593.01 516.05,1595.42 504.82,1595.43 C493.58,1595.42 458.27,1593.01 442.72,1591.13 C423.17,1588.49 401.13,1584.10 382.05,1579.07 C366.97,1574.85 333.43,1563.56 323.05,1559.27 C312.67,1554.97 280.97,1539.22 267.32,1531.54 C250.27,1521.61 231.59,1509.13 215.89,1497.18 C203.57,1487.51 176.90,1464.25 168.95,1456.31 C161.01,1448.36 137.75,1421.68 128.08,1409.37 C116.13,1393.67 103.64,1374.99 93.71,1357.93 C86.03,1344.29 70.29,1312.59 65.99,1302.21 C61.69,1291.83 50.41,1258.28 46.19,1243.20 C41.15,1224.12 36.77,1202.09 34.12,1182.53 C32.25,1166.98 29.84,1131.67 29.83,1120.44 C29.84,1109.21 32.25,1073.90 34.12,1058.35 C36.77,1038.80 41.15,1016.76 46.19,997.68 C50.41,982.60 61.69,949.05 65.99,938.67 C70.29,928.30 86.03,896.60 93.71,882.95 C103.64,865.90 116.13,847.22 128.08,831.52 C137.75,819.20 161.01,792.52 168.95,784.57 C176.90,776.64 203.57,753.37 215.89,743.71 C231.59,731.75 250.27,719.27 267.32,709.34 C280.97,701.66 312.67,685.92 323.05,681.61 C333.43,677.32 366.97,666.04 382.05,661.82 C401.13,656.78 423.17,652.40 442.72,649.75 C458.27,647.87 493.58,645.46 504.82,645.45 Z" fill="none" stroke="rgb(7, 0, 0)" stroke-width="3.24" stroke-opacity="1.00" stroke-linejoin="round"/>
<path d="M487.23,124.71 C492.75,124.71 509.95,125.89 517.54,126.80 C527.05,128.09 537.87,130.24 547.15,132.69 C554.51,134.75 570.85,140.25 575.95,142.36 C581.05,144.47 596.49,152.14 603.15,155.89 C611.44,160.72 620.62,166.85 628.25,172.66 C634.26,177.38 647.26,188.71 651.16,192.61 C655.06,196.52 666.39,209.51 671.11,215.52 C676.92,223.16 683.05,232.33 687.88,240.63 C691.63,247.29 699.30,262.73 701.42,267.82 C703.52,272.92 709.02,289.26 711.08,296.62 C713.53,305.90 715.68,316.72 716.97,326.23 C717.88,333.82 719.06,351.02 719.06,356.54 C719.06,362.06 717.88,379.26 716.97,386.85 C715.68,396.36 713.53,407.18 711.08,416.46 C709.02,423.82 703.52,440.16 701.42,445.26 C699.30,450.35 691.63,465.79 687.88,472.46 C683.05,480.75 676.92,489.92 671.11,497.56 C666.39,503.57 655.06,516.56 651.16,520.47 C647.26,524.37 634.26,535.70 628.25,540.42 C620.62,546.23 611.44,552.36 603.15,557.19 C596.49,560.94 581.05,568.61 575.95,570.73 C570.85,572.83 554.51,578.33 547.15,580.39 C537.87,582.84 527.05,584.99 517.54,586.28 C509.95,587.19 492.75,588.37 487.23,588.37 C481.71,588.37 464.51,587.19 456.93,586.28 C447.42,584.99 436.59,582.84 427.31,580.39 C419.95,578.33 403.61,572.83 398.51,570.73 C393.42,568.61 377.98,560.94 371.32,557.19 C363.02,552.36 353.85,546.23 346.21,540.42 C340.20,535.70 327.21,524.37 323.30,520.47 C319.40,516.56 308.07,503.57 303.35,497.56 C297.54,489.92 291.41,480.75 286.58,472.46 C282.83,465.79 275.16,450.35 273.05,445.26 C270.94,440.16 265.44,423.82 263.39,416.46 C260.94,407.18 258.78,396.36 257.50,386.85 C256.58,379.26 255.40,362.06 255.40,356.54 C255.40,351.02 256.58,333.82 257.50,326.23 C258.78,316.72 260.94,305.90 263.39,296.62 C265.44,289.26 270.94,272.92 273.05,267.82 C275.16,262.73 282.83,247.29 286.58,240.63 C291.41,232.33 297.54,223.16 303.35,215.52 C308.07,209.51 319.40,196.52 323.30,192.61 C327.21,188.71 340.20,177.38 346.21,172.66 C353.85,166.85 363.02,160.72 371.32,155.89 C377.98,152.14 393.42,144.47 398.51,142.36 C403.61,140.25 419.95,134.75 427.31,132.69 C436.59,130.24 447.42,128.09 456.93,126.80 C464.51,125.89 481.71,124.71 487.23,124.71 Z" fill="none" stroke="rgb(7, 0, 0)" stroke-width="3.24" stroke-opacity="1.00" stroke-linejoin="round"/>
</g>
</svg>
